<?xml version="1.0" standalone="no"?>
<!DOCTYPE svg PUBLIC "-//W3C//DTD SVG 20010904//EN"
 "http://www.w3.org/TR/2001/REC-SVG-20010904/DTD/svg10.dtd">
<svg version="1.0" xmlns="http://www.w3.org/2000/svg"
 width="225.000000pt" height="225.000000pt" viewBox="0 0 225.000000 225.000000"
 preserveAspectRatio="xMidYMid meet">

<g transform="translate(0.000000,225.000000) scale(0.100000,-0.100000)"
fill="#000000" stroke="none">
<path d="M942 2010 c-79 -21 -150 -44 -158 -51 -22 -18 -20 -241 2 -264 9 -8
24 -13 33 -11 9 3 63 17 121 31 58 14 113 28 123 31 14 5 17 -1 17 -38 l0 -43
-318 -164 c-174 -91 -320 -169 -324 -175 -14 -20 -8 -45 12 -56 15 -8 30 -5
70 15 l50 25 0 -79 c0 -79 0 -79 -27 -85 -16 -3 -138 -19 -273 -37 -135 -17
-251 -35 -257 -41 -17 -14 -16 -43 2 -58 10 -8 31 -10 65 -5 l50 7 2 -404 3
-403 990 0 990 0 3 403 2 404 50 -7 c34 -5 55 -3 65 5 18 15 19 44 3 58 -7 6
-123 24 -258 41 -135 18 -257 34 -272 37 -28 6 -28 6 -28 85 l0 79 50 -25 c40
-20 55 -23 70 -15 24 13 26 43 4 61 -9 8 -156 87 -326 175 l-310 161 1 165 c1
91 -3 177 -8 191 -14 36 -41 35 -219 -13z m140 -114 l-4 -64 -104 -26 c-57
-14 -108 -26 -114 -26 -7 0 -10 22 -8 62 l3 62 105 27 c58 15 110 28 115 28 6
1 9 -24 7 -63z m486 -528 l32 -20 0 -534 0 -534 -140 0 -140 0 0 95 c0 136 2
135 -193 135 -201 0 -197 3 -197 -131 l0 -99 -140 0 -140 0 2 537 3 538 235
122 235 122 205 -106 c113 -58 220 -114 238 -125z m-998 -693 l0 -395 -180 0
-180 0 0 370 0 369 33 6 c17 3 95 14 172 24 77 10 143 19 148 20 4 0 7 -177 7
-394z m1290 370 c69 -9 137 -18 153 -21 l27 -6 0 -369 0 -369 -180 0 -180 0 0
395 0 395 28 -5 c15 -3 83 -12 152 -20z m-778 -690 l3 -75 -37 0 -38 0 0 68
c0 38 3 72 7 75 3 4 19 7 34 7 27 0 27 -1 31 -75z m156 -2 l3 -73 -38 0 -38 0
3 76 4 75 31 -3 32 -3 3 -72z"/>
<path d="M740 1201 c-5 -11 -10 -69 -10 -130 0 -141 0 -141 124 -141 58 0 96
4 104 12 17 17 17 249 0 266 -8 8 -47 12 -110 12 -86 0 -98 -2 -108 -19z m150
-127 l0 -65 -37 3 -38 3 -3 63 -3 62 41 0 40 0 0 -66z"/>
<path d="M1017 1214 c-13 -13 -8 -259 5 -272 18 -18 192 -16 207 2 8 9 11 56
9 142 l-3 129 -106 3 c-58 1 -108 -1 -112 -4z m143 -139 l0 -65 -35 0 -35 0 0
65 0 65 35 0 35 0 0 -65z"/>
<path d="M1292 1208 c-17 -17 -17 -249 0 -266 8 -8 46 -12 104 -12 124 0 124
0 124 141 0 61 -5 119 -10 130 -10 17 -22 19 -108 19 -63 0 -102 -4 -110 -12z
m146 -130 l-3 -63 -37 -3 -38 -3 0 65 0 66 40 0 41 0 -3 -62z"/>
<path d="M746 854 c-13 -12 -16 -39 -16 -125 0 -61 5 -119 10 -130 10 -17 22
-19 108 -19 63 0 102 4 110 12 8 8 12 53 12 135 0 146 3 143 -124 143 -64 0
-88 -4 -100 -16z m144 -129 l0 -65 -40 0 -40 0 0 58 c0 32 3 62 7 65 3 4 21 7
40 7 l33 0 0 -65z"/>
<path d="M1021 856 c-8 -9 -11 -56 -9 -142 l3 -129 110 0 110 0 3 129 c2 86
-1 133 -9 142 -8 10 -37 14 -104 14 -67 0 -96 -4 -104 -14z m139 -131 l0 -65
-35 0 -35 0 0 65 0 65 35 0 35 0 0 -65z"/>
<path d="M1298 859 c-16 -9 -18 -26 -18 -132 0 -82 4 -127 12 -135 8 -8 47
-12 110 -12 86 0 98 2 108 19 5 11 10 69 10 130 0 140 -1 141 -118 141 -48 0
-95 -5 -104 -11z m140 -136 l3 -63 -41 0 -40 0 0 66 0 65 38 -3 37 -3 3 -62z"/>
<path d="M282 958 c-8 -8 -12 -51 -12 -129 0 -148 1 -149 116 -149 127 0 124
-3 124 143 0 82 -4 127 -12 135 -16 16 -200 16 -216 0z m148 -133 l0 -65 -40
0 -40 0 0 65 0 65 40 0 40 0 0 -65z"/>
<path d="M282 618 c-17 -17 -17 -249 0 -266 16 -16 200 -16 216 0 17 17 17
249 0 266 -16 16 -200 16 -216 0z m148 -133 l0 -65 -40 0 -40 0 0 65 0 65 40
0 40 0 0 -65z"/>
<path d="M1752 958 c-8 -8 -12 -53 -12 -135 0 -146 -3 -143 124 -143 115 0
116 1 116 149 0 78 -4 121 -12 129 -16 16 -200 16 -216 0z m148 -133 l0 -65
-40 0 -40 0 0 65 0 65 40 0 40 0 0 -65z"/>
<path d="M1752 618 c-17 -17 -17 -249 0 -266 16 -16 200 -16 216 0 17 17 17
249 0 266 -16 16 -200 16 -216 0z m148 -133 l0 -65 -40 0 -40 0 0 65 0 65 40
0 40 0 0 -65z"/>
</g>
</svg>
